<svg width="32" height="32" viewBox="0 0 32 32" fill="none" xmlns="http://www.w3.org/2000/svg">
<path fill-rule="evenodd" clip-rule="evenodd" d="M22.1186 5.22389C22.0804 5.25449 22.0228 5.23018 22.0178 5.18155C21.8534 3.5619 21.1277 2.29747 20.085 1.42193C18.9468 0.46599 17.4635 -0.00012207 15.9989 -0.00012207C14.5343 -0.00012207 13.051 0.46599 11.9128 1.42182C10.8702 2.29735 10.1446 3.56154 9.98011 5.18096C9.9789 5.19205 9.97475 5.20262 9.96808 5.21156C9.96141 5.22051 9.95246 5.2275 9.94218 5.23182C9.93189 5.23614 9.92063 5.23763 9.90958 5.23613C9.89852 5.23463 9.88806 5.2302 9.8793 5.2233C8.59031 4.19204 7.16138 3.80017 5.79008 3.90265C4.29271 4.01461 2.90742 4.712 1.8732 5.72428C0.838977 6.73656 0.12866 8.09042 0.0151567 9.55079C-0.0992958 11.025 0.398365 12.5687 1.70976 13.9225L1.71071 13.9236C1.83057 14.0467 1.95175 14.1686 2.07423 14.2891L2.07566 14.2904C8.0362 20.1206 15.9584 20.1209 15.9989 20.1209C16.0002 20.1209 23.9778 20.1051 29.9225 14.2913C30.0471 14.1701 30.1696 14.0469 30.29 13.9217C31.6007 12.5666 32.0979 11.0227 31.9831 9.54841C31.8692 8.08757 31.1584 6.73395 30.1239 5.72203C29.0893 4.70998 27.7039 4.01342 26.2069 3.90194C24.8354 3.79982 23.4069 4.19204 22.1186 5.22389ZM10.1897 15.5218C10.1897 14.9904 10.6259 14.5564 11.1601 14.5564C11.6967 14.5564 12.1305 14.9904 12.1305 15.5218V17.715C12.1305 18.2465 11.6943 18.6806 11.1601 18.6806C10.6259 18.6806 10.1897 18.2465 10.1897 17.715V15.5218ZM17.1989 16.685C16.9545 16.7527 16.341 16.8904 16.012 16.8904C15.65 16.8904 15.0179 16.7387 14.8252 16.685C14.7015 16.6502 14.5722 16.6403 14.4447 16.6559C14.3172 16.6715 14.1941 16.7124 14.0826 16.7761C13.9709 16.8385 13.8727 16.9225 13.7937 17.023C13.7146 17.1236 13.6562 17.2389 13.6219 17.3621C13.5869 17.485 13.577 17.6136 13.5928 17.7404C13.6085 17.8672 13.6496 17.9895 13.7136 18.1001C13.7766 18.2114 13.8613 18.3091 13.9626 18.3872C14.0639 18.4654 14.1797 18.5226 14.3034 18.5554C14.3434 18.567 15.3047 18.8309 16.012 18.8309C16.7194 18.8309 17.6807 18.567 17.7206 18.5554C18.24 18.413 18.5455 17.8782 18.4021 17.3599C18.2589 16.8438 17.7206 16.5402 17.1989 16.6826V16.685ZM21.8334 15.5218C21.8334 14.9904 21.3972 14.5564 20.863 14.5564C20.3264 14.5564 19.8926 14.9904 19.8926 15.5218V17.715C19.8926 18.2465 20.3288 18.6806 20.863 18.6806C21.3972 18.6806 21.8334 18.2465 21.8334 17.715V15.5218Z" fill="white"/>
<path fill-rule="evenodd" clip-rule="evenodd" d="M22.1186 5.22389C23.4069 4.19204 24.8354 3.79982 26.2069 3.90194C27.7039 4.01342 29.0893 4.70998 30.1239 5.72203C31.1584 6.73395 31.8692 8.08757 31.9831 9.54841C32.0979 11.0227 31.6007 12.5666 30.29 13.9217C29.5757 14.6596 28.8029 15.3375 27.9787 15.9503C27.9711 15.956 27.9649 15.9634 27.9607 15.9719C27.9564 15.9804 27.9542 15.9897 27.9542 15.9992C27.9542 16.0087 27.9564 16.0181 27.9607 16.0266C27.9649 16.0351 27.9711 16.0425 27.9787 16.0481C28.6634 16.5572 29.313 17.1119 29.923 17.7084L29.9243 17.7097C30.0468 17.8302 30.168 17.9521 30.2878 18.0752L30.2889 18.0761C31.6002 19.4301 32.0978 20.9738 31.9834 22.4479C31.87 23.9085 31.1596 25.2623 30.1253 26.2746C29.0911 27.2869 27.7058 27.9842 26.2086 28.0961C24.8373 28.1986 23.4083 27.8067 22.1194 26.7755C22.1106 26.7686 22.1001 26.7641 22.0891 26.7626C22.078 26.7611 22.0668 26.7626 22.0565 26.767C22.0462 26.7713 22.0372 26.7783 22.0306 26.7872C22.0239 26.7962 22.0197 26.8067 22.0185 26.8178C21.8539 28.4372 21.1283 29.7014 20.0858 30.5768C18.9477 31.5327 17.4643 31.9989 15.9996 31.9989C14.535 31.9989 13.0518 31.5327 11.9136 30.5768C10.871 29.7013 10.1453 28.4369 9.98087 26.8172C9.97966 26.8061 9.97551 26.7956 9.96884 26.7866C9.96217 26.7777 9.95322 26.7707 9.94294 26.7664C9.93265 26.762 9.92139 26.7606 9.91033 26.7621C9.89928 26.7636 9.88882 26.768 9.88006 26.7749C8.59178 27.8066 7.16309 28.199 5.79179 28.0968C4.29466 27.9854 2.90949 27.2888 1.87479 26.2768C0.840092 25.2647 0.129419 23.9112 0.0155596 22.4502C-0.0992487 20.9761 0.397938 19.4321 1.70851 18.0771C1.82894 17.9518 1.95152 17.8286 2.07618 17.7075C2.68611 17.1112 3.33555 16.5567 4.02009 16.0478C4.0277 16.0421 4.03388 16.0347 4.03813 16.0262C4.04239 16.0177 4.0446 16.0084 4.0446 15.9989C4.0446 15.9894 4.04239 15.98 4.03813 15.9715C4.03388 15.963 4.0277 15.9556 4.02009 15.9499C3.33538 15.4409 2.68573 14.8869 2.07566 14.2904L2.07423 14.2891C1.95175 14.1686 1.83057 14.0467 1.71071 13.9236L1.70976 13.9225C0.398365 12.5687 -0.0992958 11.025 0.0151567 9.55079C0.12866 8.09042 0.838977 6.73656 1.8732 5.72428C2.90742 4.712 4.29271 4.01461 5.79008 3.90265C7.16138 3.80017 8.59031 4.19204 9.8793 5.2233C9.88806 5.2302 9.89852 5.23463 9.90958 5.23613C9.92063 5.23763 9.93189 5.23614 9.94218 5.23182C9.95246 5.2275 9.96141 5.22051 9.96808 5.21156C9.97475 5.20262 9.9789 5.19205 9.98011 5.18096C10.1446 3.56154 10.8702 2.29735 11.9128 1.42182C13.051 0.46599 14.5343 -0.00012207 15.9989 -0.00012207C17.4635 -0.00012207 18.9468 0.46599 20.085 1.42193C21.1277 2.29747 21.8534 3.5619 22.0178 5.18155C22.019 5.19263 22.0232 5.20249 22.0299 5.21142C22.0366 5.22035 22.0455 5.22733 22.0558 5.23164C22.0661 5.23594 22.0773 5.23742 22.0884 5.23592C22.0994 5.23441 22.1098 5.23079 22.1186 5.22389ZM10.1897 15.5218C10.1897 14.9904 10.6259 14.5564 11.1601 14.5564C11.6967 14.5564 12.1305 14.9904 12.1305 15.5218V17.715C12.1305 18.2465 11.6943 18.6806 11.1601 18.6806C10.6259 18.6806 10.1897 18.2465 10.1897 17.715V15.5218ZM17.1989 16.685C16.9545 16.7527 16.341 16.8904 16.012 16.8904C15.65 16.8904 15.0179 16.7387 14.8252 16.685C14.7015 16.6502 14.5722 16.6403 14.4447 16.6559C14.3172 16.6715 14.1941 16.7124 14.0826 16.7761C13.9709 16.8385 13.8727 16.9225 13.7937 17.023C13.7146 17.1236 13.6562 17.2389 13.6219 17.3621C13.5869 17.485 13.577 17.6136 13.5928 17.7404C13.6085 17.8672 13.6496 17.9895 13.7136 18.1001C13.7766 18.2114 13.8613 18.3091 13.9626 18.3872C14.0639 18.4654 14.1797 18.5226 14.3034 18.5554C14.3434 18.567 15.3047 18.8309 16.012 18.8309C16.7194 18.8309 17.6807 18.567 17.7206 18.5554C18.24 18.413 18.5455 17.8782 18.4021 17.3599C18.2589 16.8438 17.7206 16.5402 17.1989 16.6826V16.685ZM21.8334 15.5218C21.8334 14.9904 21.3972 14.5564 20.863 14.5564C20.3264 14.5564 19.8926 14.9904 19.8926 15.5218V17.715C19.8926 18.2465 20.3288 18.6806 20.863 18.6806C21.3972 18.6806 21.8334 18.2465 21.8334 17.715V15.5218Z"/>
</svg>
